<?xml version="1.0" encoding="UTF-8"?>
<svg width="24px" height="24px" viewBox="0 0 24 24" version="1.1" xmlns="http://www.w3.org/2000/svg" xmlns:xlink="http://www.w3.org/1999/xlink">
    <title>camera@1x</title>
    <defs>
        <rect id="path-1" x="0" y="0" width="24" height="24" rx="12"></rect>
        <filter x="-41.7%" y="-33.3%" width="183.3%" height="183.3%" filterUnits="objectBoundingBox" id="filter-2">
            <feOffset dx="0" dy="2" in="SourceAlpha" result="shadowOffsetOuter1"></feOffset>
            <feGaussianBlur stdDeviation="3" in="shadowOffsetOuter1" result="shadowBlurOuter1"></feGaussianBlur>
            <feColorMatrix values="0 0 0 0 0   0 0 0 0 0   0 0 0 0 0  0 0 0 0.12 0" type="matrix" in="shadowBlurOuter1" result="shadowMatrixOuter1"></feColorMatrix>
            <feOffset dx="0" dy="0" in="SourceAlpha" result="shadowOffsetOuter2"></feOffset>
            <feGaussianBlur stdDeviation="1" in="shadowOffsetOuter2" result="shadowBlurOuter2"></feGaussianBlur>
            <feColorMatrix values="0 0 0 0 0   0 0 0 0 0   0 0 0 0 0  0 0 0 0.04 0" type="matrix" in="shadowBlurOuter2" result="shadowMatrixOuter2"></feColorMatrix>
            <feMerge>
                <feMergeNode in="shadowMatrixOuter1"></feMergeNode>
                <feMergeNode in="shadowMatrixOuter2"></feMergeNode>
            </feMerge>
        </filter>
    </defs>
    <g id="🟢-App---Master-Asset" stroke="none" stroke-width="1" fill="none" fill-rule="evenodd">
        <g id="Assets" transform="translate(-120.000000, -1608.000000)">
            <g id="camera" transform="translate(120.000000, 1608.000000)">
                <g id="base">
                    <g id="↳🎨Color">
                        <use fill="black" fill-opacity="1" filter="url(#filter-2)" xlink:href="#path-1"></use>
                        <use fill="#FFFFFF" fill-rule="evenodd" xlink:href="#path-1"></use>
                    </g>
                    <g id="🧬Background" fill="#767676">
                        <rect id="↳🎨Color" x="0" y="0" width="24" height="24" rx="12"></rect>
                    </g>
                </g>
                <g id="🧿-Icon" transform="translate(6.000000, 6.000000)" fill="#FFFFFF">
                    <path d="M12,3.37499999 L12,10.125 C12,10.7460938 11.4960938,11.25 10.875,11.25 L1.12499998,11.25 C0.503906223,11.25 -3.00000004e-08,10.7460938 -3.00000004e-08,10.125 L-3.00000004e-08,3.37499999 C-3.00000004e-08,2.75390623 0.503906223,2.24999997 1.12499998,2.24999997 L3.18749999,2.24999997 L3.47578124,1.47890623 C3.63984374,1.04062498 4.05937499,0.749999974 4.52812499,0.749999974 L7.46953126,0.749999974 C7.93828126,0.749999974 8.35781251,1.04062498 8.52187501,1.47890623 L8.81250001,2.24999997 L10.875,2.24999997 C11.4960938,2.24999997 12,2.75390623 12,3.37499999 Z M8.81250001,6.75 C8.81250001,5.1984375 7.55156251,3.93749999 6,3.93749999 C4.44843749,3.93749999 3.18749999,5.1984375 3.18749999,6.75 C3.18749999,8.30156251 4.44843749,9.56250002 6,9.56250002 C7.55156251,9.56250002 8.81250001,8.30156251 8.81250001,6.75 Z M8.06250001,6.75 C8.06250001,7.88671876 7.13671876,8.81250001 6,8.81250001 C4.86328124,8.81250001 3.93749999,7.88671876 3.93749999,6.75 C3.93749999,5.61328125 4.86328124,4.68749999 6,4.68749999 C7.13671876,4.68749999 8.06250001,5.61328125 8.06250001,6.75 Z M5.25,6.75 C5.25,6.3375 5.5875,6 5.99999999,6 C6.20625,6 6.375,5.83125 6.375,5.625 C6.375,5.41875 6.20625,5.25 5.99999999,5.25 C5.17265625,5.25 4.49999999,5.92265625 4.49999999,6.75 C4.49999999,6.95625 4.66874999,7.12500001 4.87499999,7.12500001 C5.08125,7.12500001 5.25,6.95625 5.25,6.75 Z" id="↳🎨Color"></path>
                </g>
            </g>
        </g>
    </g>
</svg>