<?xml version="1.0" encoding="UTF-8"?>
<svg width="36px" height="36px" viewBox="0 0 36 36" version="1.1" xmlns="http://www.w3.org/2000/svg" xmlns:xlink="http://www.w3.org/1999/xlink">
    <title>Icons / Trash / Filled@1x</title>
    <g id="🔸Assets" stroke="none" stroke-width="1" fill="none" fill-rule="evenodd">
        <g id="02.-System-Icon" transform="translate(-838.000000, -99.000000)" fill-rule="nonzero">
            <g id="Icon" transform="translate(838.000000, 99.000000)">
                <rect id="Path" x="0" y="0" width="36" height="36"></rect>
                <path d="M11.4545455,22.4572216 L21.5922471,12.3195199 C22.0182736,11.8934934 22.7089991,11.8934934 23.1350256,12.3195199 C23.5610521,12.7455464 23.5610521,13.4362718 23.1350256,13.8622983 L12.2259347,24.7713892 C11.7999082,25.1974157 11.1091827,25.1974157 10.6831562,24.7713892 L6.31951988,20.4077529 C5.89349337,19.9817264 5.89349337,19.2910009 6.31951988,18.8649744 C6.74554638,18.4389479 7.43627181,18.4389479 7.86229831,18.8649744 L11.4545455,22.4572216 Z M18.7713892,24.7713892 C18.3453627,25.1974157 17.6546373,25.1974157 17.2286108,24.7713892 C16.8025843,24.3453627 16.8025843,23.6546373 17.2286108,23.2286108 L28.1377017,12.3195199 C28.5637282,11.8934934 29.2544536,11.8934934 29.6804801,12.3195199 C30.1065066,12.7455464 30.1065066,13.4362718 29.6804801,13.8622983 L18.7713892,24.7713892 Z" id="Shape" fill="#FFFFFF"></path>
            </g>
        </g>
    </g>
</svg>