<?xml version="1.0" encoding="UTF-8"?>
<svg width="16px" height="16px" viewBox="0 0 16 16" version="1.1" xmlns="http://www.w3.org/2000/svg" xmlns:xlink="http://www.w3.org/1999/xlink">
    <title>Icons / Clock / Filled</title>
    <g id="🔸-Assets" stroke="none" stroke-width="1" fill="none" fill-rule="evenodd">
        <g id="02.-System-Icon" transform="translate(-18.000000, -181.000000)" fill-rule="nonzero">
            <g id="Icon" transform="translate(18.000000, 181.000000)">
                <rect id="Path" x="0" y="0" width="16" height="16"></rect>
                <path d="M8,13.3333333 C5.05448133,13.3333333 2.66666667,10.9455187 2.66666667,8 C2.66666667,5.05448133 5.05448133,2.66666667 8,2.66666667 C10.9455187,2.66666667 13.3333333,5.05448133 13.3333333,8 C13.3333333,10.9455187 10.9455187,13.3333333 8,13.3333333 Z M8.53333333,7.46666667 L8.53333333,5.33333333 C8.53333333,5.03878147 8.29455187,4.8 8,4.8 C7.70544813,4.8 7.46666667,5.03878147 7.46666667,5.33333333 L7.46666667,8 C7.46666667,8.29455187 7.70544813,8.53333333 8,8.53333333 L9.6,8.53333333 C9.89455187,8.53333333 10.1333333,8.29455187 10.1333333,8 C10.1333333,7.70544813 9.89455187,7.46666667 9.6,7.46666667 L8.53333333,7.46666667 Z" id="Shape" fill="#8C8C8C"></path>
            </g>
        </g>
    </g>
</svg>